<?xml version="1.0" encoding="UTF-8"?> <svg xmlns="http://www.w3.org/2000/svg" id="Слой_1" data-name="Слой 1" viewBox="0 0 979.45 291.23"><defs><style>.cls-1{fill:#477b78;}</style></defs><title>logo svg</title><path class="cls-1" d="M336.46,593.54a49,49,0,0,1-18-19.06A55.74,55.74,0,0,1,312,547.69a64.87,64.87,0,0,1,5.88-27.39,49.9,49.9,0,0,1,17.56-20.76q11.68-8,28.21-8a53.28,53.28,0,0,1,30.07,9.08l7.29,5.28v21.21h-5.36q-1.49-13.85-9.75-21.66t-21.21-7.81a33.66,33.66,0,0,0-19.27,5.88,39.92,39.92,0,0,0-13.77,16.74q-5.07,10.88-5.06,25.16a54.31,54.31,0,0,0,5.35,24.48,42.23,42.23,0,0,0,14.44,16.82,35.54,35.54,0,0,0,20.1,6,43.71,43.71,0,0,0,19.2-4.46,40.14,40.14,0,0,0,15.18-12.65l3.87,3.12q-8.62,12.06-19.8,16.89a55.65,55.65,0,0,1-22.32,4.84A49.38,49.38,0,0,1,336.46,593.54Z" transform="translate(-50.55 -394.2)"></path><path class="cls-1" d="M426.87,523.73h12.75l20.75,47.18q1.94,4.62,4.46,11H465a32.87,32.87,0,0,1,1.19-3.28l2.23-6.4,17.86-48.52h8.36L464.83,598.6h-5.95Z" transform="translate(-50.55 -394.2)"></path><path class="cls-1" d="M537.4,595.69a34,34,0,0,1-13-13.84,43.79,43.79,0,0,1-4.76-20.76,41.89,41.89,0,0,1,4.76-19.58,38.1,38.1,0,0,1,13.32-14.66,35.14,35.14,0,0,1,19.43-5.51c5.66,0,10.87,1.07,15.33,3.73,14.34,8.55,17.4,27.18,17.31,39.65H536.14c1.53,11.67,6.26,27.95,23.36,28.22a30.77,30.77,0,0,0,14.07-3.57,30.12,30.12,0,0,0,11.09-8.78l3.57,3a34.64,34.64,0,0,1-14.66,12.8,41.84,41.84,0,0,1-17.64,4.17A35.91,35.91,0,0,1,537.4,595.69Zm37.14-38c0-6-2.65-30-17.27-30.51-12.3-.44-21.66,15.33-21.66,30.66Z" transform="translate(-50.55 -394.2)"></path><path class="cls-1" d="M622.17,573.14l.3-43.16-11.47.15v-6.4c9.9-.1,19.61-18,19.5-24.77h5.06v24.77h25v5.8l-25,.3q-.15,22.77-.22,31.56c-.05,5.85-.08,9.13-.08,9.82q0,10.57,2.53,15.7t8.79,5.14a14.34,14.34,0,0,0,7.66-2.38,22.56,22.56,0,0,0,6.63-6.55l4,3.27q-5.8,8.64-11.47,11.39a25.14,25.14,0,0,1-11,2.75Q622,600.53,622.17,573.14Z" transform="translate(-50.55 -394.2)"></path><path class="cls-1" d="M705,595.69a35.62,35.62,0,0,1-13.55-13.47,38.28,38.28,0,0,1-5-19.5,45,45,0,0,1,4.91-21.06,37.89,37.89,0,0,1,13.47-14.88,34.69,34.69,0,0,1,19-5.44,37.19,37.19,0,0,1,18.9,5A36.7,36.7,0,0,1,756.35,540a37.76,37.76,0,0,1,5,19.2,44.31,44.31,0,0,1-5,20.84,39,39,0,0,1-13.55,15,34.32,34.32,0,0,1-19,5.5A37.53,37.53,0,0,1,705,595.69Zm36-10q5.13-8.94,5.14-22.18,0-15-5.59-25.75T723.83,527q-11,0-16.6,9.08t-5.58,22.33a58.77,58.77,0,0,0,2.6,17.79,31,31,0,0,0,7.89,13.32A18,18,0,0,0,725,594.58Q735.88,594.58,741,585.65Z" transform="translate(-50.55 -394.2)"></path><path class="cls-1" d="M813.58,594.21a44.52,44.52,0,0,1-17.86-18.09q-6.4-11.76-6.4-27.83a65.82,65.82,0,0,1,5.88-27.54,50.59,50.59,0,0,1,17.63-21.06q11.76-8.12,28.29-8.11a64.26,64.26,0,0,1,16.3,2.16,52.55,52.55,0,0,1,14.51,6l7.59,5V526.7h-5.36q-1-13.68-9.9-21.43t-22.1-7.74a32.78,32.78,0,0,0-19.27,6.1A42.2,42.2,0,0,0,809,520.53a56,56,0,0,0-5.13,24.33,59.15,59.15,0,0,0,5.06,25,41.35,41.35,0,0,0,14.14,17.27,35.66,35.66,0,0,0,20.69,6.25A49.69,49.69,0,0,0,857,591.53a41.12,41.12,0,0,0,12.28-5.59V553.35l-10.42-.06v-5.9h33.64v4.92q-7.14,0-8.93,5.43A39.26,39.26,0,0,0,881.75,570v22.77h-4q-6.24,0-16.07,3.87a52.11,52.11,0,0,1-10.57,2.83,67.26,67.26,0,0,1-11.16,1Q825,600.53,813.58,594.21Z" transform="translate(-50.55 -394.2)"></path><path class="cls-1" d="M925.81,575.53l.12-49.53c5.85,0,12.68-3.76,12.68-3.76v60.13c0,4.47.18,15.78.18,15.78H925.93S925.81,580.29,925.81,575.53Zm.44-70.63a8.85,8.85,0,0,1-2.38-6.18,9,9,0,0,1,2.46-6.25,7.37,7.37,0,0,1,11.31-.07,9.22,9.22,0,0,1,2.31,6.32,8.71,8.71,0,0,1-2.46,6.18,7.64,7.64,0,0,1-5.73,2.6A7.27,7.27,0,0,1,926.25,504.9Z" transform="translate(-50.55 -394.2)"></path><path class="cls-1" d="M991.45,598.67a38.57,38.57,0,0,1-10-4.69l-6.55-4.88,2.18-7.34c.39,1.4,9.16,8,13.82,10.21,4.45,2.09,6.87,2.76,10.64,2.76a21.43,21.43,0,0,0,11.39-3.05,9.68,9.68,0,0,0,5-8.71,10.35,10.35,0,0,0-2.46-7,20.34,20.34,0,0,0-6.11-4.69q-3.64-1.86-10.19-4.39a101,101,0,0,1-12.65-5.58,25.72,25.72,0,0,1-8.19-7.07,18.08,18.08,0,0,1-3.42-11.31,22.26,22.26,0,0,1,2.38-9.82,20.14,20.14,0,0,1,8-8.34q5.65-3.42,15-3.43a32.12,32.12,0,0,1,9.45,1.49,26.4,26.4,0,0,1,9,4.92l6,5.34-2.92,6.33a84.41,84.41,0,0,0-6.29-6.7,20.12,20.12,0,0,0-14.49-5.87q-6.69,0-10.64,3.35a10.15,10.15,0,0,0-3.94,8,10.68,10.68,0,0,0,2.6,7.29,22.79,22.79,0,0,0,6.48,5.06,92.29,92.29,0,0,0,10.42,4.61,112.32,112.32,0,0,1,12.5,5.81,26.16,26.16,0,0,1,8.11,7.07,17,17,0,0,1,3.35,10.64,19.7,19.7,0,0,1-3.65,12.06,22.36,22.36,0,0,1-9.52,7.37,32.43,32.43,0,0,1-12.58,2.45A41.75,41.75,0,0,1,991.45,598.67Z" transform="translate(-50.55 -394.2)"></path><path class="cls-1" d="M277.24,443c.06-.2,0-.4.07-.6a4.16,4.16,0,0,0,.12-.93,4.53,4.53,0,0,0-.18-.89,4.38,4.38,0,0,0-.12-.61c0-.05-.06-.08-.08-.13a4.27,4.27,0,0,0-.52-.76,4.54,4.54,0,0,0-.46-.6,3.56,3.56,0,0,0-.61-.4,4.07,4.07,0,0,0-.83-.48s-.07-.06-.12-.07c-15-5-15.63-15.18-15.65-15.73h0a2,2,0,0,1,0-.21,4.5,4.5,0,0,0-.21-.74,3.71,3.71,0,0,0-.22-.76,4.28,4.28,0,0,0-3.53-2.41c-.14,0-.26-.09-.41-.1s-.09,0-.13,0l-.14,0a377.36,377.36,0,0,0-1.52.43,4.47,4.47,0,0,0-.71.49,4.09,4.09,0,0,0-.61.49,3.92,3.92,0,0,0-.48.72,4.54,4.54,0,0,0-.38.68,3.69,3.69,0,0,0-.17.89,3.61,3.61,0,0,0-.13.67s0,.14,0,.26h0c0,.1.6,10.48-14.29,16.68l-.11.07a4.44,4.44,0,0,0-.81.55,4.87,4.87,0,0,0-.56.43,5.31,5.31,0,0,0-.42.63,4.67,4.67,0,0,0-.46.81c0,.05-.06.08-.08.13s0,.4-.07.6a4.16,4.16,0,0,0-.12.93,4.53,4.53,0,0,0,.18.89,4.38,4.38,0,0,0,.12.61c0,.06.07.1.09.15s.15.24.22.36a4.22,4.22,0,0,0,.68.88l.34.31a4.28,4.28,0,0,0,1.12.64c.06,0,.11.08.17.1,14.84,5,15.62,15,15.65,15.7,0,.11,0,.21,0,.24a231.2,231.2,0,0,0,.4,1.5,4.42,4.42,0,0,0,.56.8,4.74,4.74,0,0,0,.37.51,4.28,4.28,0,0,0,.88.57,2.88,2.88,0,0,0,.47.3,4.22,4.22,0,0,0,1.62.33h.33a4.26,4.26,0,0,0,.7-.19,4.31,4.31,0,0,0,.82-.23,4.24,4.24,0,0,0,.69-.48,4.41,4.41,0,0,0,.64-.5,4.7,4.7,0,0,0,.46-.7,5.47,5.47,0,0,0,.4-.7,4.84,4.84,0,0,0,.16-.86,3.3,3.3,0,0,0,.13-.71s0-.15,0-.31c0-.59-.23-10.58,14.29-16.63.1,0,.16-.13.26-.18a4.37,4.37,0,0,0,.92-.62,4.21,4.21,0,0,0,.37-.36,4.71,4.71,0,0,0,.58-.87,3.81,3.81,0,0,0,.23-.45C277.18,443.12,277.22,443.08,277.24,443Zm-21.56,7.08a29.64,29.64,0,0,0-8.53-7.53,29.1,29.1,0,0,0,7.9-8.11,29.35,29.35,0,0,0,8.53,7.53A29.23,29.23,0,0,0,255.68,450.11Z" transform="translate(-50.55 -394.2)"></path><path class="cls-1" d="M94.67,660a4.38,4.38,0,0,0-.17-.89,4.26,4.26,0,0,0-.13-.62,1.25,1.25,0,0,0-.08-.12,4.21,4.21,0,0,0-.51-.76,3.53,3.53,0,0,0-.47-.61,4,4,0,0,0-.59-.39,5.1,5.1,0,0,0-.84-.49s-.08-.05-.13-.07c-14.83-5-15.61-15-15.65-15.69,0-.11,0-.21,0-.25a4.25,4.25,0,0,0-.14-.51,4.82,4.82,0,0,0-.31-1.1,1.59,1.59,0,0,0-.15-.21,3.93,3.93,0,0,0-.87-1.11,1.53,1.53,0,0,0-.21-.14,4.07,4.07,0,0,0-1.13-.65,4.84,4.84,0,0,0-.86-.16,5.11,5.11,0,0,0-.7-.12l-.13,0s-.09,0-.13,0a4.14,4.14,0,0,0-.71.2,3.84,3.84,0,0,0-.82.23,4,4,0,0,0-.69.47,4.47,4.47,0,0,0-.63.5,4.32,4.32,0,0,0-.46.71,3.73,3.73,0,0,0-.4.7,4,4,0,0,0-.16.85,4.25,4.25,0,0,0-.14.71s0,.15,0,.32c0,.58.23,10.58-14.29,16.62,0,0-.07.06-.12.08a4.16,4.16,0,0,0-.8.54,5.06,5.06,0,0,0-.57.44,13.23,13.23,0,0,0-.88,1.44,1.27,1.27,0,0,1-.07.12,4.11,4.11,0,0,0-.08.6,4.82,4.82,0,0,0-.11.93,3.91,3.91,0,0,0,.18.89,3.24,3.24,0,0,0,.12.62c0,.05.06.09.09.15a3.48,3.48,0,0,0,.22.36,4.45,4.45,0,0,0,.67.88,3.44,3.44,0,0,0,.35.3,4.11,4.11,0,0,0,1.11.64c.07,0,.11.08.18.11,15,5,15.62,15.17,15.65,15.72h0c0,.08,0,.18,0,.21a4.08,4.08,0,0,0,.21.78,4.25,4.25,0,0,0,.2.72,4.87,4.87,0,0,0,.52.76,4.5,4.5,0,0,0,.41.54,4.27,4.27,0,0,0,.83.55,4.59,4.59,0,0,0,.52.33,4.37,4.37,0,0,0,1.62.32h.32a4.14,4.14,0,0,0,.71-.2,4.53,4.53,0,0,0,.82-.23,3.68,3.68,0,0,0,.7-.49,4.88,4.88,0,0,0,.62-.48,4.32,4.32,0,0,0,.47-.73,3.77,3.77,0,0,0,.39-.67,4.38,4.38,0,0,0,.17-.89,5.1,5.1,0,0,0,.13-.68s0-.14,0-.26h0c0-.11-.6-10.49,14.28-16.68.1-.05.17-.13.27-.18a4.31,4.31,0,0,0,.91-.62,3.32,3.32,0,0,0,.38-.37,4,4,0,0,0,.57-.87,3.75,3.75,0,0,0,.24-.44s0-.09.07-.15a3.78,3.78,0,0,0,.08-.6A4.72,4.72,0,0,0,94.67,660Zm-21.74,8.61A29.76,29.76,0,0,0,64.4,661a29,29,0,0,0,7.89-8.11,29.68,29.68,0,0,0,8.54,7.53A29,29,0,0,0,72.93,668.57Z" transform="translate(-50.55 -394.2)"></path><path class="cls-1" d="M256.25,484.91c-2.86-.71-4.91.93-6.07,4.89-.73,2.52-6.65,6.55-12.93,10.81C233,503.5,228,506.92,222.73,511A85.6,85.6,0,0,0,209.3,476c0-.06,0-.12,0-.18,4.7-7,4.18-13.44,3.58-20.25-.32-3.72,2.2-9,4.64-14,3.92-8.16,8.36-17.41,4.3-26.11-4.79-10.22-7.61-14.9-7.73-15.1a4.32,4.32,0,0,0-7.72.66,15.14,15.14,0,0,1-4.08,5,11.37,11.37,0,0,0-5.89-6.38,35.14,35.14,0,0,1-7.47-4.4,4.21,4.21,0,0,0-.55-.3,4.66,4.66,0,0,0-.76-.41,3.59,3.59,0,0,0-.79-.17,3.81,3.81,0,0,0-.82-.09,4.31,4.31,0,0,0-.8.13,4.55,4.55,0,0,0-.8.23,4.61,4.61,0,0,0-.72.46,4.23,4.23,0,0,0-.53.33c-.08.08-.14.19-.22.27s-.08,0-.11.08a.6.6,0,0,1-.06.11c-2.44,2.6-4.18,6.87-4.62,11.35-4.38-2-9.66-3.94-16.05-6.21a4.32,4.32,0,0,0-5.63,3l-3.31,12.66a19.34,19.34,0,0,0-.44,6.86,17.62,17.62,0,0,0-7.79.88,11.47,11.47,0,0,1-1.24.32,4.32,4.32,0,0,0-6.1,4.94,1.33,1.33,0,0,1,.05.19,35.1,35.1,0,0,1,1,7.63l-1.17,0a86.17,86.17,0,0,0-86.07,86.08,146.56,146.56,0,0,0,3.18,28.24C68.49,609.92,131.36,675.46,134,678.22a4.92,4.92,0,0,0,7.07,0c.69-.71,5.44-5.67,12.32-13.6a4.35,4.35,0,0,0,.72-.49c2.6-2.65,10.87-9.81,17.75-11,.8-.14,1.91-.24,3.28-.36C184.86,651.89,205,650,219,632c1.16-1.49,4.77-7.18,7.41-11.55,5.76-9.52,7.7-12.73,4.3-15.56-2.26-1.9-4.81-1.31-7.58,1.76-1.76,2-8.84,3-16.35,4.11-4.29.64-9.27,1.41-14.63,2.47,10.3-16.13,19.7-33.79,25.39-51.18,1.86-3.17,4.15-6.28,6.75-8.14.65-.47,1.62-1,2.79-1.75,8.34-5,25.7-15.43,30.43-37.75h0c.39-1.84,1.17-8.53,1.65-13.62C260.18,489.72,260.53,486,256.25,484.91Zm-14.13,22.85,1.42-1c-5.17,7.27-11.8,14.27-18,20.75l-2.16,2.28c.14-2.28.22-4.45.22-6.36,0-.66,0-1.31,0-2A213.69,213.69,0,0,1,242.12,507.76Zm-93.49-55.33a44.68,44.68,0,0,1,7.14-2.93,76,76,0,0,1,24.17,10.61c1.15,1.24,2.33,2.54,3.46,3.79l2.76,3c-5.14-2.12-11.48-1.89-17.65-1.64-7.82.32-15.2.61-18.85-3.5-2.52-2.83-4.53-5.2-6.08-7.08C145.3,454,147,453.23,148.63,452.43Zm57.21-38c1.39-1.21,2.8-2.42,4.09-3.74,1.11,2.17,2.49,5,4.09,8.38,2.33,5-.87,11.65-4.26,18.7-2.94,6.13-6,12.46-5.45,18.54a44.74,44.74,0,0,1,.24,8.28c-.85-1.8-1.27-4.31-2.41-11.51-.58-3.64-1.32-8.34-2.39-14.58-.56-3.22-1.18-6.07-1.88-8.63,0,0,0,0,0-.07C196.53,422.88,200,419.43,205.84,414.39Zm-18.34-9.76a49.64,49.64,0,0,0,5.41,2.84c1.69.76,2.05,3.68,2.08,5.26a26.79,26.79,0,0,0-3.2,4.19,26.86,26.86,0,0,0-4.62-4.54A12.58,12.58,0,0,1,187.5,404.63Zm-25.93,14.14,2.11-8.08c7.76,2.82,13.09,5,16.91,7.61a4.18,4.18,0,0,0,1.16.85c3.9,3,6,6.51,7.59,12,0,.1,0,.19,0,.28a1.67,1.67,0,0,1,.08.2c.65,2.38,1.21,5.1,1.77,8.31,1.06,6.18,1.8,10.85,2.37,14.46.26,1.68.49,3.11.71,4.42a87.31,87.31,0,0,0-12.45-9.13,27.39,27.39,0,0,0-3.61-3C172.12,442.71,159.06,428.4,161.57,418.77Zm-14.55,14,.46-.13c2.66-.81,4-1.19,8.32.82a48.69,48.69,0,0,0,4.2,6.92h-.09A86.1,86.1,0,0,0,147.4,438,47.35,47.35,0,0,0,147,432.74ZM137.56,667.6C124,652.79,75.62,597.37,64.23,549.43a137.64,137.64,0,0,1-2.92-26,76.34,76.34,0,0,1,76.25-76.25c.34,0,.66,0,1,.05a8.8,8.8,0,0,1-2.51.36,4.43,4.43,0,0,0-4,2.28,4.32,4.32,0,0,0,.28,4.55c.14.18,3.32,4.64,10.81,13.07,6.37,7.18,16.62,6.76,25.67,6.4,5.62-.24,11.44-.47,14.72,1.31,4.92,2.65,9.62,5.18,15.68,5.18.37,0,.76,0,1.13-.06a75.59,75.59,0,0,1,13.21,38.92c-11.17,14.18-9.67,42.44-9.08,49.64-1,2.41-2,4.83-3.14,7.24.12-5.2-.59-10.19-2.73-14.41a212.09,212.09,0,0,0-13.29-22.08c-4.2-6.31-8.17-12.28-7.89-14.89.42-4.11-.85-6.4-3.78-6.81-4.39-.62-5.46,3-8.67,13.62-1.47,4.89-3.28,11.38-3.61,13.24-4,22.45,8.1,38.65,13.94,46.43.82,1.1,1.5,2,1.93,2.68,3.1,4.92,3.76,13.36,3.77,18.17q-1.67,2.52-3.35,5c-14.33,6.72-24.58,27.72-28.71,37.49C144.21,660.23,140.21,664.7,137.56,667.6Zm54.22-82.89c-1.48-4.77-3.53-10-5.76-15.71-3.26-8.32-6.76-17.3-8.8-26l.94,1.43a203.31,203.31,0,0,1,12.78,21.2C193.42,570.56,193.22,577.53,191.78,584.71Zm-22.13-36.35A235.64,235.64,0,0,0,178,572.15c2.15,5.49,4.31,11,5.76,15.89-.42-.59-.9-1.23-1.45-2C177.35,579.5,167.35,566.1,169.65,548.36Zm4.74,95.8c-.94.08-1.75.16-2.48.25,4.58-2.18,10.17-4.3,15.69-6.38a234.07,234.07,0,0,0,23.24-9.76C199.2,641.85,182.55,643.41,174.39,644.16ZM208,619.33l1.7-.26c-7.81,4.29-16.83,7.72-25.18,10.87l-5.13,1.95c1.93-2.66,3.86-5.41,5.78-8.21A215.75,215.75,0,0,1,208,619.33Zm14.58-74.57-.91.55c.05-.27.08-.57.13-.85,3-3.51,6.49-7.26,10-11a234.62,234.62,0,0,0,16.68-18.9C244,531.89,229.64,540.54,222.61,544.76Z" transform="translate(-50.55 -394.2)"></path></svg> 